<svg width="728" height="334" viewBox="0 0 728 334" fill="none" xmlns="http://www.w3.org/2000/svg">
<rect x="0.5" y="0.5" width="727" height="333" rx="3.5" fill="#212936" stroke="#313C4E"/>
<path d="M35.7188 33.7734H31.2852V46H28.834V33.7734H24.4395V31.7812H35.7188V33.7734ZM35.0387 40.6191C35.0387 39.584 35.2437 38.653 35.6539 37.8262C36.0641 36.9928 36.6402 36.3548 37.3824 35.9121C38.1246 35.4629 38.9775 35.2383 39.941 35.2383C41.3668 35.2383 42.5224 35.6973 43.4078 36.6152C44.2997 37.5332 44.7815 38.7507 44.8531 40.2676L44.8629 40.8242C44.8629 41.8659 44.6611 42.7969 44.2574 43.6172C43.8603 44.4375 43.2874 45.0723 42.5387 45.5215C41.7965 45.9707 40.9371 46.1953 39.9605 46.1953C38.4697 46.1953 37.275 45.7005 36.3766 44.7109C35.4846 43.7148 35.0387 42.39 35.0387 40.7363V40.6191ZM37.4117 40.8242C37.4117 41.9115 37.6363 42.7643 38.0855 43.3828C38.5348 43.9948 39.1598 44.3008 39.9605 44.3008C40.7613 44.3008 41.3831 43.9883 41.8258 43.3633C42.275 42.7383 42.4996 41.8236 42.4996 40.6191C42.4996 39.5514 42.2685 38.7051 41.8062 38.0801C41.3505 37.4551 40.7288 37.1426 39.941 37.1426C39.1663 37.1426 38.551 37.4518 38.0953 38.0703C37.6396 38.6823 37.4117 39.6003 37.4117 40.8242ZM56.2727 40.8242C56.2727 42.4583 55.9016 43.7637 55.1594 44.7402C54.4172 45.7103 53.4211 46.1953 52.1711 46.1953C51.0122 46.1953 50.0845 45.8145 49.3879 45.0527V50.0625H47.0148V35.4336H49.2023L49.3 36.5078C49.9966 35.6615 50.9439 35.2383 52.1418 35.2383C53.4309 35.2383 54.44 35.7201 55.1691 36.6836C55.9048 37.6406 56.2727 38.972 56.2727 40.6777V40.8242ZM53.9094 40.6191C53.9094 39.5645 53.6978 38.7279 53.2746 38.1094C52.8579 37.4909 52.259 37.1816 51.4777 37.1816C50.5077 37.1816 49.8111 37.582 49.3879 38.3828V43.0703C49.8176 43.8906 50.5207 44.3008 51.4973 44.3008C52.2525 44.3008 52.8417 43.998 53.2648 43.3926C53.6945 42.7806 53.9094 41.8561 53.9094 40.6191ZM71.2309 42.3379C71.2309 41.7129 71.0095 41.2311 70.5668 40.8926C70.1306 40.554 69.3396 40.2122 68.1937 39.8672C67.0479 39.5221 66.1365 39.138 65.4594 38.7148C64.1638 37.901 63.516 36.8398 63.516 35.5312C63.516 34.3854 63.9815 33.4414 64.9125 32.6992C65.85 31.957 67.0642 31.5859 68.5551 31.5859C69.5447 31.5859 70.4268 31.7682 71.2016 32.1328C71.9763 32.4974 72.585 33.0182 73.0277 33.6953C73.4704 34.3659 73.6918 35.1113 73.6918 35.9316H71.2309C71.2309 35.1895 70.9965 34.61 70.5277 34.1934C70.0655 33.7702 69.4014 33.5586 68.5355 33.5586C67.7283 33.5586 67.1 33.7311 66.6508 34.0762C66.2081 34.4212 65.9867 34.903 65.9867 35.5215C65.9867 36.0423 66.2276 36.4785 66.7094 36.8301C67.1911 37.1751 67.9854 37.5137 69.0922 37.8457C70.199 38.1712 71.0876 38.5456 71.7582 38.9688C72.4288 39.3854 72.9203 39.8672 73.2328 40.4141C73.5453 40.9544 73.7016 41.5892 73.7016 42.3184C73.7016 43.5033 73.2458 44.4473 72.3344 45.1504C71.4294 45.847 70.199 46.1953 68.643 46.1953C67.6143 46.1953 66.6671 46.0065 65.8012 45.6289C64.9418 45.2448 64.2712 44.7174 63.7895 44.0469C63.3142 43.3763 63.0766 42.5951 63.0766 41.7031H65.5473C65.5473 42.5104 65.8142 43.1354 66.348 43.5781C66.8819 44.0208 67.6469 44.2422 68.643 44.2422C69.5023 44.2422 70.1469 44.0697 70.5766 43.7246C71.0128 43.373 71.2309 42.9108 71.2309 42.3379ZM78.7637 32.8652V35.4336H80.6289V37.1914H78.7637V43.0898C78.7637 43.4935 78.8418 43.7865 78.998 43.9688C79.1608 44.1445 79.4473 44.2324 79.8574 44.2324C80.1309 44.2324 80.4076 44.1999 80.6875 44.1348V45.9707C80.1471 46.1204 79.6263 46.1953 79.125 46.1953C77.3021 46.1953 76.3906 45.1895 76.3906 43.1777V37.1914H74.6523V35.4336H76.3906V32.8652H78.7637ZM88.9137 46C88.8095 45.7982 88.7184 45.4694 88.6402 45.0137C87.885 45.8014 86.9605 46.1953 85.8668 46.1953C84.8056 46.1953 83.9397 45.8926 83.2691 45.2871C82.5986 44.6816 82.2633 43.9329 82.2633 43.041C82.2633 41.9147 82.6799 41.0521 83.5133 40.4531C84.3531 39.8477 85.551 39.5449 87.107 39.5449H88.5621V38.8516C88.5621 38.3047 88.4091 37.8685 88.1031 37.543C87.7971 37.2109 87.3316 37.0449 86.7066 37.0449C86.1663 37.0449 85.7236 37.1816 85.3785 37.4551C85.0335 37.722 84.8609 38.0638 84.8609 38.4805H82.4879C82.4879 37.901 82.6799 37.3607 83.0641 36.8594C83.4482 36.3516 83.969 35.9544 84.6266 35.668C85.2906 35.3815 86.0296 35.2383 86.8434 35.2383C88.0803 35.2383 89.0667 35.5508 89.8023 36.1758C90.538 36.7943 90.9156 37.6667 90.9352 38.793V43.5586C90.9352 44.5091 91.0686 45.2676 91.3355 45.834V46H88.9137ZM86.3063 44.291C86.775 44.291 87.2145 44.1771 87.6246 43.9492C88.0413 43.7214 88.3538 43.4154 88.5621 43.0312V41.0391H87.2828C86.4039 41.0391 85.7431 41.1921 85.3004 41.498C84.8577 41.804 84.6363 42.237 84.6363 42.7969C84.6363 43.2526 84.7861 43.6172 85.0855 43.8906C85.3915 44.1576 85.7984 44.291 86.3063 44.291ZM96.5441 32.8652V35.4336H98.4094V37.1914H96.5441V43.0898C96.5441 43.4935 96.6223 43.7865 96.7785 43.9688C96.9413 44.1445 97.2277 44.2324 97.6379 44.2324C97.9113 44.2324 98.188 44.1999 98.468 44.1348V45.9707C97.9276 46.1204 97.4068 46.1953 96.9055 46.1953C95.0826 46.1953 94.1711 45.1895 94.1711 43.1777V37.1914H92.4328V35.4336H94.1711V32.8652H96.5441ZM105.034 46.1953C103.53 46.1953 102.309 45.7233 101.372 44.7793C100.441 43.8288 99.9754 42.5658 99.9754 40.9902V40.6973C99.9754 39.6426 100.177 38.7018 100.581 37.875C100.991 37.0417 101.564 36.3939 102.3 35.9316C103.035 35.4694 103.856 35.2383 104.761 35.2383C106.199 35.2383 107.309 35.6973 108.091 36.6152C108.878 37.5332 109.272 38.832 109.272 40.5117V41.4688H102.368C102.44 42.3411 102.729 43.0312 103.237 43.5391C103.751 44.0469 104.396 44.3008 105.171 44.3008C106.258 44.3008 107.143 43.8613 107.827 42.9824L109.106 44.2031C108.683 44.8346 108.117 45.3262 107.407 45.6777C106.704 46.0228 105.913 46.1953 105.034 46.1953ZM104.751 37.1426C104.1 37.1426 103.572 37.3704 103.169 37.8262C102.772 38.2819 102.518 38.9167 102.407 39.7305H106.929V39.5547C106.876 38.7604 106.665 38.1615 106.294 37.7578C105.923 37.3477 105.408 37.1426 104.751 37.1426ZM117.196 43.1289C117.196 42.7057 117.02 42.3835 116.668 42.1621C116.323 41.9408 115.747 41.7454 114.94 41.5762C114.133 41.4069 113.459 41.1921 112.918 40.9316C111.733 40.3587 111.141 39.5286 111.141 38.4414C111.141 37.5299 111.525 36.7682 112.293 36.1562C113.062 35.5443 114.038 35.2383 115.223 35.2383C116.486 35.2383 117.505 35.5508 118.28 36.1758C119.061 36.8008 119.452 37.6113 119.452 38.6074H117.079C117.079 38.1517 116.909 37.7741 116.571 37.4746C116.232 37.1686 115.783 37.0156 115.223 37.0156C114.702 37.0156 114.276 37.1361 113.944 37.377C113.618 37.6178 113.455 37.9401 113.455 38.3438C113.455 38.7083 113.608 38.9915 113.914 39.1934C114.22 39.3952 114.839 39.6003 115.77 39.8086C116.701 40.0104 117.43 40.2546 117.957 40.541C118.491 40.821 118.885 41.1595 119.139 41.5566C119.399 41.9538 119.53 42.4355 119.53 43.002C119.53 43.9525 119.136 44.724 118.348 45.3164C117.56 45.9023 116.528 46.1953 115.252 46.1953C114.386 46.1953 113.615 46.0391 112.938 45.7266C112.261 45.4141 111.733 44.9844 111.356 44.4375C110.978 43.8906 110.789 43.3014 110.789 42.6699H113.094C113.127 43.2298 113.338 43.6628 113.729 43.9688C114.12 44.2682 114.637 44.418 115.282 44.418C115.907 44.418 116.382 44.3008 116.707 44.0664C117.033 43.8255 117.196 43.513 117.196 43.1289Z" fill="#AFBDD1"/>
<path d="M189.995 306H188.905V298.775L186.72 299.578V298.594L189.825 297.428H189.995V306ZM198.92 302.361C198.92 303.631 198.704 304.574 198.27 305.191C197.836 305.809 197.159 306.117 196.237 306.117C195.327 306.117 194.653 305.816 194.215 305.215C193.778 304.609 193.551 303.707 193.536 302.508V301.061C193.536 299.807 193.752 298.875 194.186 298.266C194.62 297.656 195.299 297.352 196.225 297.352C197.143 297.352 197.819 297.646 198.252 298.236C198.686 298.822 198.909 299.729 198.92 300.955V302.361ZM197.836 300.879C197.836 299.961 197.707 299.293 197.45 298.875C197.192 298.453 196.784 298.242 196.225 298.242C195.67 298.242 195.266 298.451 195.012 298.869C194.758 299.287 194.627 299.93 194.62 300.797V302.531C194.62 303.453 194.752 304.135 195.018 304.576C195.287 305.014 195.694 305.232 196.237 305.232C196.772 305.232 197.168 305.025 197.426 304.611C197.688 304.197 197.825 303.545 197.836 302.654V300.879ZM206.059 302.361C206.059 303.631 205.842 304.574 205.408 305.191C204.975 305.809 204.297 306.117 203.375 306.117C202.465 306.117 201.791 305.816 201.354 305.215C200.916 304.609 200.689 303.707 200.674 302.508V301.061C200.674 299.807 200.891 298.875 201.324 298.266C201.758 297.656 202.438 297.352 203.363 297.352C204.281 297.352 204.957 297.646 205.391 298.236C205.824 298.822 206.047 299.729 206.059 300.955V302.361ZM204.975 300.879C204.975 299.961 204.846 299.293 204.588 298.875C204.33 298.453 203.922 298.242 203.363 298.242C202.809 298.242 202.404 298.451 202.15 298.869C201.896 299.287 201.766 299.93 201.758 300.797V302.531C201.758 303.453 201.891 304.135 202.156 304.576C202.426 305.014 202.832 305.232 203.375 305.232C203.91 305.232 204.307 305.025 204.564 304.611C204.826 304.197 204.963 303.545 204.975 302.654V300.879ZM213.197 302.361C213.197 303.631 212.98 304.574 212.546 305.191C212.113 305.809 211.435 306.117 210.513 306.117C209.603 306.117 208.929 305.816 208.492 305.215C208.054 304.609 207.828 303.707 207.812 302.508V301.061C207.812 299.807 208.029 298.875 208.463 298.266C208.896 297.656 209.576 297.352 210.502 297.352C211.42 297.352 212.095 297.646 212.529 298.236C212.963 298.822 213.185 299.729 213.197 300.955V302.361ZM212.113 300.879C212.113 299.961 211.984 299.293 211.726 298.875C211.468 298.453 211.06 298.242 210.502 298.242C209.947 298.242 209.543 298.451 209.289 298.869C209.035 299.287 208.904 299.93 208.896 300.797V302.531C208.896 303.453 209.029 304.135 209.295 304.576C209.564 305.014 209.97 305.232 210.513 305.232C211.048 305.232 211.445 305.025 211.703 304.611C211.964 304.197 212.101 303.545 212.113 302.654V300.879Z" fill="#56657F"/>
<path d="M200 88V280" stroke="#313C4E"/>
<path d="M336.022 306H330.432V305.221L333.386 301.939C333.823 301.443 334.124 301.041 334.288 300.732C334.456 300.42 334.54 300.098 334.54 299.766C334.54 299.32 334.405 298.955 334.136 298.67C333.866 298.385 333.507 298.242 333.057 298.242C332.518 298.242 332.098 298.396 331.798 298.705C331.501 299.01 331.352 299.436 331.352 299.982H330.268C330.268 299.197 330.52 298.562 331.024 298.078C331.532 297.594 332.21 297.352 333.057 297.352C333.85 297.352 334.477 297.561 334.938 297.979C335.399 298.393 335.63 298.945 335.63 299.637C335.63 300.477 335.095 301.477 334.024 302.637L331.739 305.115H336.022V306ZM342.92 302.361C342.92 303.631 342.704 304.574 342.27 305.191C341.836 305.809 341.159 306.117 340.237 306.117C339.327 306.117 338.653 305.816 338.215 305.215C337.778 304.609 337.551 303.707 337.536 302.508V301.061C337.536 299.807 337.752 298.875 338.186 298.266C338.62 297.656 339.299 297.352 340.225 297.352C341.143 297.352 341.819 297.646 342.252 298.236C342.686 298.822 342.909 299.729 342.92 300.955V302.361ZM341.836 300.879C341.836 299.961 341.707 299.293 341.45 298.875C341.192 298.453 340.784 298.242 340.225 298.242C339.67 298.242 339.266 298.451 339.012 298.869C338.758 299.287 338.627 299.93 338.62 300.797V302.531C338.62 303.453 338.752 304.135 339.018 304.576C339.287 305.014 339.694 305.232 340.237 305.232C340.772 305.232 341.168 305.025 341.426 304.611C341.688 304.197 341.825 303.545 341.836 302.654V300.879ZM350.059 302.361C350.059 303.631 349.842 304.574 349.408 305.191C348.975 305.809 348.297 306.117 347.375 306.117C346.465 306.117 345.791 305.816 345.354 305.215C344.916 304.609 344.689 303.707 344.674 302.508V301.061C344.674 299.807 344.891 298.875 345.324 298.266C345.758 297.656 346.438 297.352 347.363 297.352C348.281 297.352 348.957 297.646 349.391 298.236C349.824 298.822 350.047 299.729 350.059 300.955V302.361ZM348.975 300.879C348.975 299.961 348.846 299.293 348.588 298.875C348.33 298.453 347.922 298.242 347.363 298.242C346.809 298.242 346.404 298.451 346.15 298.869C345.896 299.287 345.766 299.93 345.758 300.797V302.531C345.758 303.453 345.891 304.135 346.156 304.576C346.426 305.014 346.832 305.232 347.375 305.232C347.91 305.232 348.307 305.025 348.564 304.611C348.826 304.197 348.963 303.545 348.975 302.654V300.879ZM357.197 302.361C357.197 303.631 356.98 304.574 356.546 305.191C356.113 305.809 355.435 306.117 354.513 306.117C353.603 306.117 352.929 305.816 352.492 305.215C352.054 304.609 351.828 303.707 351.812 302.508V301.061C351.812 299.807 352.029 298.875 352.463 298.266C352.896 297.656 353.576 297.352 354.502 297.352C355.42 297.352 356.095 297.646 356.529 298.236C356.963 298.822 357.185 299.729 357.197 300.955V302.361ZM356.113 300.879C356.113 299.961 355.984 299.293 355.726 298.875C355.468 298.453 355.06 298.242 354.502 298.242C353.947 298.242 353.543 298.451 353.289 298.869C353.035 299.287 352.904 299.93 352.896 300.797V302.531C352.896 303.453 353.029 304.135 353.295 304.576C353.564 305.014 353.97 305.232 354.513 305.232C355.048 305.232 355.445 305.025 355.703 304.611C355.964 304.197 356.101 303.545 356.113 302.654V300.879Z" fill="#56657F"/>
<path d="M344 88V280" stroke="#313C4E"/>
<path d="M476.009 301.207H476.823C477.335 301.199 477.737 301.064 478.03 300.803C478.323 300.541 478.47 300.188 478.47 299.742C478.47 298.742 477.971 298.242 476.975 298.242C476.507 298.242 476.132 298.377 475.85 298.646C475.573 298.912 475.434 299.266 475.434 299.707H474.35C474.35 299.031 474.596 298.471 475.089 298.025C475.585 297.576 476.214 297.352 476.975 297.352C477.78 297.352 478.411 297.564 478.868 297.99C479.325 298.416 479.554 299.008 479.554 299.766C479.554 300.137 479.432 300.496 479.19 300.844C478.952 301.191 478.626 301.451 478.212 301.623C478.68 301.771 479.042 302.018 479.296 302.361C479.554 302.705 479.682 303.125 479.682 303.621C479.682 304.387 479.432 304.994 478.932 305.443C478.432 305.893 477.782 306.117 476.981 306.117C476.18 306.117 475.528 305.9 475.024 305.467C474.524 305.033 474.274 304.461 474.274 303.75H475.364C475.364 304.199 475.511 304.559 475.804 304.828C476.096 305.098 476.489 305.232 476.981 305.232C477.505 305.232 477.905 305.096 478.182 304.822C478.46 304.549 478.598 304.156 478.598 303.645C478.598 303.148 478.446 302.768 478.141 302.502C477.837 302.236 477.397 302.1 476.823 302.092H476.009V301.207ZM486.92 302.361C486.92 303.631 486.704 304.574 486.27 305.191C485.836 305.809 485.159 306.117 484.237 306.117C483.327 306.117 482.653 305.816 482.215 305.215C481.778 304.609 481.551 303.707 481.536 302.508V301.061C481.536 299.807 481.752 298.875 482.186 298.266C482.62 297.656 483.299 297.352 484.225 297.352C485.143 297.352 485.819 297.646 486.252 298.236C486.686 298.822 486.909 299.729 486.92 300.955V302.361ZM485.836 300.879C485.836 299.961 485.707 299.293 485.45 298.875C485.192 298.453 484.784 298.242 484.225 298.242C483.67 298.242 483.266 298.451 483.012 298.869C482.758 299.287 482.627 299.93 482.62 300.797V302.531C482.62 303.453 482.752 304.135 483.018 304.576C483.287 305.014 483.694 305.232 484.237 305.232C484.772 305.232 485.168 305.025 485.426 304.611C485.688 304.197 485.825 303.545 485.836 302.654V300.879ZM494.059 302.361C494.059 303.631 493.842 304.574 493.408 305.191C492.975 305.809 492.297 306.117 491.375 306.117C490.465 306.117 489.791 305.816 489.354 305.215C488.916 304.609 488.689 303.707 488.674 302.508V301.061C488.674 299.807 488.891 298.875 489.324 298.266C489.758 297.656 490.438 297.352 491.363 297.352C492.281 297.352 492.957 297.646 493.391 298.236C493.824 298.822 494.047 299.729 494.059 300.955V302.361ZM492.975 300.879C492.975 299.961 492.846 299.293 492.588 298.875C492.33 298.453 491.922 298.242 491.363 298.242C490.809 298.242 490.404 298.451 490.15 298.869C489.896 299.287 489.766 299.93 489.758 300.797V302.531C489.758 303.453 489.891 304.135 490.156 304.576C490.426 305.014 490.832 305.232 491.375 305.232C491.91 305.232 492.307 305.025 492.564 304.611C492.826 304.197 492.963 303.545 492.975 302.654V300.879ZM501.197 302.361C501.197 303.631 500.98 304.574 500.546 305.191C500.113 305.809 499.435 306.117 498.513 306.117C497.603 306.117 496.929 305.816 496.492 305.215C496.054 304.609 495.828 303.707 495.812 302.508V301.061C495.812 299.807 496.029 298.875 496.463 298.266C496.896 297.656 497.576 297.352 498.502 297.352C499.42 297.352 500.095 297.646 500.529 298.236C500.963 298.822 501.185 299.729 501.197 300.955V302.361ZM500.113 300.879C500.113 299.961 499.984 299.293 499.726 298.875C499.468 298.453 499.06 298.242 498.502 298.242C497.947 298.242 497.543 298.451 497.289 298.869C497.035 299.287 496.904 299.93 496.896 300.797V302.531C496.896 303.453 497.029 304.135 497.295 304.576C497.564 305.014 497.97 305.232 498.513 305.232C499.048 305.232 499.445 305.025 499.703 304.611C499.964 304.197 500.101 303.545 500.113 302.654V300.879Z" fill="#56657F"/>
<path d="M488 88V280" stroke="#313C4E"/>
<path d="M623.009 303.135H624.192V304.02H623.009V306H621.919V304.02H618.034V303.381L621.854 297.469H623.009V303.135ZM619.264 303.135H621.919V298.951L621.79 299.186L619.264 303.135ZM630.92 302.361C630.92 303.631 630.704 304.574 630.27 305.191C629.836 305.809 629.159 306.117 628.237 306.117C627.327 306.117 626.653 305.816 626.215 305.215C625.778 304.609 625.551 303.707 625.536 302.508V301.061C625.536 299.807 625.752 298.875 626.186 298.266C626.62 297.656 627.299 297.352 628.225 297.352C629.143 297.352 629.819 297.646 630.252 298.236C630.686 298.822 630.909 299.729 630.92 300.955V302.361ZM629.836 300.879C629.836 299.961 629.707 299.293 629.45 298.875C629.192 298.453 628.784 298.242 628.225 298.242C627.67 298.242 627.266 298.451 627.012 298.869C626.758 299.287 626.627 299.93 626.62 300.797V302.531C626.62 303.453 626.752 304.135 627.018 304.576C627.287 305.014 627.694 305.232 628.237 305.232C628.772 305.232 629.168 305.025 629.426 304.611C629.688 304.197 629.825 303.545 629.836 302.654V300.879ZM638.059 302.361C638.059 303.631 637.842 304.574 637.408 305.191C636.975 305.809 636.297 306.117 635.375 306.117C634.465 306.117 633.791 305.816 633.354 305.215C632.916 304.609 632.689 303.707 632.674 302.508V301.061C632.674 299.807 632.891 298.875 633.324 298.266C633.758 297.656 634.438 297.352 635.363 297.352C636.281 297.352 636.957 297.646 637.391 298.236C637.824 298.822 638.047 299.729 638.059 300.955V302.361ZM636.975 300.879C636.975 299.961 636.846 299.293 636.588 298.875C636.33 298.453 635.922 298.242 635.363 298.242C634.809 298.242 634.404 298.451 634.15 298.869C633.896 299.287 633.766 299.93 633.758 300.797V302.531C633.758 303.453 633.891 304.135 634.156 304.576C634.426 305.014 634.832 305.232 635.375 305.232C635.91 305.232 636.307 305.025 636.564 304.611C636.826 304.197 636.963 303.545 636.975 302.654V300.879ZM645.197 302.361C645.197 303.631 644.98 304.574 644.546 305.191C644.113 305.809 643.435 306.117 642.513 306.117C641.603 306.117 640.929 305.816 640.492 305.215C640.054 304.609 639.828 303.707 639.812 302.508V301.061C639.812 299.807 640.029 298.875 640.463 298.266C640.896 297.656 641.576 297.352 642.502 297.352C643.42 297.352 644.095 297.646 644.529 298.236C644.963 298.822 645.185 299.729 645.197 300.955V302.361ZM644.113 300.879C644.113 299.961 643.984 299.293 643.726 298.875C643.468 298.453 643.06 298.242 642.502 298.242C641.947 298.242 641.543 298.451 641.289 298.869C641.035 299.287 640.904 299.93 640.896 300.797V302.531C640.896 303.453 641.029 304.135 641.295 304.576C641.564 305.014 641.97 305.232 642.513 305.232C643.048 305.232 643.445 305.025 643.703 304.611C643.964 304.197 644.101 303.545 644.113 302.654V300.879Z" fill="#56657F"/>
<path d="M632 88V280" stroke="#313C4E"/>
<g clip-path="url(#clip0)">
<path d="M54.9203 302.361C54.9203 303.631 54.7035 304.574 54.2699 305.191C53.8363 305.809 53.1586 306.117 52.2367 306.117C51.3266 306.117 50.6527 305.816 50.2152 305.215C49.7777 304.609 49.5512 303.707 49.5355 302.508V301.061C49.5355 299.807 49.7523 298.875 50.1859 298.266C50.6195 297.656 51.2992 297.352 52.225 297.352C53.143 297.352 53.8188 297.646 54.2523 298.236C54.6859 298.822 54.9086 299.729 54.9203 300.955V302.361ZM53.8363 300.879C53.8363 299.961 53.7074 299.293 53.4496 298.875C53.1918 298.453 52.7836 298.242 52.225 298.242C51.6703 298.242 51.266 298.451 51.0121 298.869C50.7582 299.287 50.6273 299.93 50.6195 300.797V302.531C50.6195 303.453 50.7523 304.135 51.018 304.576C51.2875 305.014 51.6938 305.232 52.2367 305.232C52.7719 305.232 53.1684 305.025 53.4262 304.611C53.6879 304.197 53.8246 303.545 53.8363 302.654V300.879Z" fill="#56657F"/>
<path opacity="0.5" d="M39.1492 250H38.0184L33.7234 243.426V250H32.5926V241.469H33.7234L38.0301 248.072V241.469H39.1492V250ZM43.9848 245.752L46.2113 241.469H47.4887L44.5473 246.818V250H43.4223V246.818L40.4809 241.469H41.7699L43.9848 245.752Z" fill="#56657F"/>
<rect x="46" y="279" width="10" height="1" fill="#313C4E"/>
<rect x="55" y="212" width="1" height="68" fill="#313C4E"/>
</g>
<g clip-path="url(#clip1)">
<path opacity="0.5" d="M39.6707 182H38.5457V173.469H39.6707V182ZM43.2641 181.08H47.307V182H42.1332V173.469H43.2641V181.08Z" fill="#56657F"/>
<rect x="46" y="211" width="10" height="1" fill="#313C4E"/>
<rect x="55" y="144" width="1" height="68" fill="#313C4E"/>
</g>
<g clip-path="url(#clip2)">
<path opacity="0.5" d="M38.8211 111.293C38.7156 112.195 38.3816 112.893 37.8191 113.385C37.2605 113.873 36.5164 114.117 35.5867 114.117C34.5789 114.117 33.7703 113.756 33.1609 113.033C32.5555 112.311 32.2527 111.344 32.2527 110.133V109.312C32.2527 108.52 32.3934 107.822 32.6746 107.221C32.9598 106.619 33.3621 106.158 33.8816 105.838C34.4012 105.514 35.0027 105.352 35.6863 105.352C36.5926 105.352 37.3191 105.605 37.866 106.113C38.4129 106.617 38.7313 107.316 38.8211 108.211H37.6902C37.5926 107.531 37.3797 107.039 37.0516 106.734C36.7273 106.43 36.2723 106.277 35.6863 106.277C34.9676 106.277 34.4031 106.543 33.993 107.074C33.5867 107.605 33.3836 108.361 33.3836 109.342V110.168C33.3836 111.094 33.577 111.83 33.9637 112.377C34.3504 112.924 34.8914 113.197 35.5867 113.197C36.2117 113.197 36.6902 113.057 37.0223 112.775C37.3582 112.49 37.5809 111.996 37.6902 111.293H38.8211ZM45.473 111.773H41.8988L41.0961 114H39.9359L43.1938 105.469H44.1781L47.4418 114H46.2875L45.473 111.773ZM42.2387 110.848H45.1391L43.6859 106.857L42.2387 110.848Z" fill="#56657F"/>
<rect x="46" y="143" width="10" height="1" fill="#313C4E"/>
<rect x="55" y="76" width="1" height="68" fill="#313C4E"/>
</g>
<path d="M56 113H450C450.552 113 451 113.448 451 114V120C451 120.552 450.552 121 450 121H56V113Z" fill="#1976D2"/>
<path d="M56 99H314C314.552 99 315 99.4477 315 100V106C315 106.552 314.552 107 314 107H56V99Z" fill="#2196F3"/>
<path d="M56 181H334C334.552 181 335 181.448 335 182V188C335 188.552 334.552 189 334 189H56V181Z" fill="#1976D2"/>
<path d="M56 167H201C201.552 167 202 167.448 202 168V174C202 174.552 201.552 175 201 175H56V167Z" fill="#2196F3"/>
<path d="M56 249H577C577.552 249 578 249.448 578 250V256C578 256.552 577.552 257 577 257H56V249Z" fill="#1976D2"/>
<path d="M56 235H368C368.552 235 369 235.448 369 236V242C369 242.552 368.552 243 368 243H56V235Z" fill="#2196F3"/>
<defs>
<clipPath id="clip0">
<rect width="32" height="98" fill="white" transform="translate(24 212)"/>
</clipPath>
<clipPath id="clip1">
<rect width="32" height="68" fill="white" transform="translate(24 144)"/>
</clipPath>
<clipPath id="clip2">
<rect width="32" height="68" fill="white" transform="translate(24 76)"/>
</clipPath>
</defs>
</svg>
