<svg width="720" height="484" viewBox="0 0 720 484" fill="none" xmlns="http://www.w3.org/2000/svg">
<rect x="0.5" y="0.5" width="719" height="483" rx="3.5" fill="#212936" stroke="#313C4E"/>
<g clip-path="url(#clip0)">
<path d="M28.2715 447H27.1816V439.775L24.9961 440.578V439.594L28.1016 438.428H28.2715V447ZM36.9582 438.469L39.7473 445.43L42.5363 438.469H43.9953V447H42.8703V443.678L42.9758 440.092L40.175 447H39.3137L36.5188 440.109L36.6301 443.678V447H35.5051V438.469H36.9582ZM50.1258 447C50.0633 446.875 50.0125 446.652 49.9734 446.332C49.4695 446.855 48.868 447.117 48.1688 447.117C47.5438 447.117 47.0301 446.941 46.6277 446.59C46.2293 446.234 46.0301 445.785 46.0301 445.242C46.0301 444.582 46.2801 444.07 46.7801 443.707C47.284 443.34 47.991 443.156 48.9012 443.156H49.9559V442.658C49.9559 442.279 49.8426 441.979 49.616 441.756C49.3895 441.529 49.0555 441.416 48.6141 441.416C48.2273 441.416 47.9031 441.514 47.6414 441.709C47.3797 441.904 47.2488 442.141 47.2488 442.418H46.159C46.159 442.102 46.2703 441.797 46.493 441.504C46.7195 441.207 47.0242 440.973 47.407 440.801C47.7938 440.629 48.2176 440.543 48.6785 440.543C49.409 440.543 49.9813 440.727 50.3953 441.094C50.8094 441.457 51.0242 441.959 51.0398 442.6V445.518C51.0398 446.1 51.1141 446.562 51.2625 446.906V447H50.1258ZM48.327 446.174C48.6668 446.174 48.9891 446.086 49.2938 445.91C49.5984 445.734 49.8191 445.506 49.9559 445.225V443.924H49.1063C47.7781 443.924 47.1141 444.312 47.1141 445.09C47.1141 445.43 47.2273 445.695 47.4539 445.887C47.6805 446.078 47.9715 446.174 48.327 446.174ZM55.1195 445.412L56.5961 440.66H57.7563L55.2074 447.979C54.8129 449.033 54.1859 449.561 53.3266 449.561L53.1215 449.543L52.7172 449.467V448.588L53.0102 448.611C53.3773 448.611 53.6625 448.537 53.8656 448.389C54.0727 448.24 54.2426 447.969 54.3754 447.574L54.6156 446.93L52.3539 440.66H53.5375L55.1195 445.412Z" fill="#56657F"/>
<rect x="24" y="371" width="336" height="1" fill="#313C4E"/>
<rect x="24" y="322" width="336" height="1" fill="#313C4E"/>
<rect x="24" y="273" width="336" height="1" fill="#313C4E"/>
<rect x="24" y="224" width="336" height="1" fill="#313C4E"/>
<rect x="24" y="175" width="336" height="1" fill="#313C4E"/>
<rect x="24" y="126" width="336" height="1" fill="#313C4E"/>
<rect x="24" y="420" width="336" height="1" fill="#313C4E"/>
</g>
<g clip-path="url(#clip1)">
<path d="M656.838 442.207H657.653C658.164 442.199 658.567 442.064 658.86 441.803C659.153 441.541 659.299 441.188 659.299 440.742C659.299 439.742 658.801 439.242 657.805 439.242C657.336 439.242 656.961 439.377 656.68 439.646C656.403 439.912 656.264 440.266 656.264 440.707H655.18C655.18 440.031 655.426 439.471 655.918 439.025C656.414 438.576 657.043 438.352 657.805 438.352C658.61 438.352 659.241 438.564 659.698 438.99C660.155 439.416 660.383 440.008 660.383 440.766C660.383 441.137 660.262 441.496 660.02 441.844C659.782 442.191 659.455 442.451 659.041 442.623C659.51 442.771 659.871 443.018 660.125 443.361C660.383 443.705 660.512 444.125 660.512 444.621C660.512 445.387 660.262 445.994 659.762 446.443C659.262 446.893 658.612 447.117 657.811 447.117C657.01 447.117 656.358 446.9 655.854 446.467C655.354 446.033 655.104 445.461 655.104 444.75H656.194C656.194 445.199 656.34 445.559 656.633 445.828C656.926 446.098 657.319 446.232 657.811 446.232C658.334 446.232 658.735 446.096 659.012 445.822C659.289 445.549 659.428 445.156 659.428 444.645C659.428 444.148 659.276 443.768 658.971 443.502C658.666 443.236 658.227 443.1 657.653 443.092H656.838V442.207ZM665.963 447H664.873V439.775L662.688 440.578V439.594L665.793 438.428H665.963V447ZM674.65 438.469L677.439 445.43L680.228 438.469H681.687V447H680.562V443.678L680.667 440.092L677.866 447H677.005L674.21 440.109L674.322 443.678V447H673.197V438.469H674.65ZM687.817 447C687.755 446.875 687.704 446.652 687.665 446.332C687.161 446.855 686.559 447.117 685.86 447.117C685.235 447.117 684.721 446.941 684.319 446.59C683.921 446.234 683.721 445.785 683.721 445.242C683.721 444.582 683.971 444.07 684.471 443.707C684.975 443.34 685.682 443.156 686.593 443.156H687.647V442.658C687.647 442.279 687.534 441.979 687.307 441.756C687.081 441.529 686.747 441.416 686.305 441.416C685.919 441.416 685.595 441.514 685.333 441.709C685.071 441.904 684.94 442.141 684.94 442.418H683.85C683.85 442.102 683.962 441.797 684.184 441.504C684.411 441.207 684.716 440.973 685.098 440.801C685.485 440.629 685.909 440.543 686.37 440.543C687.1 440.543 687.673 440.727 688.087 441.094C688.501 441.457 688.716 441.959 688.731 442.6V445.518C688.731 446.1 688.805 446.562 688.954 446.906V447H687.817ZM686.018 446.174C686.358 446.174 686.68 446.086 686.985 445.91C687.29 445.734 687.511 445.506 687.647 445.225V443.924H686.798C685.47 443.924 684.805 444.312 684.805 445.09C684.805 445.43 684.919 445.695 685.145 445.887C685.372 446.078 685.663 446.174 686.018 446.174ZM692.811 445.412L694.288 440.66H695.448L692.899 447.979C692.504 449.033 691.877 449.561 691.018 449.561L690.813 449.543L690.409 449.467V448.588L690.702 448.611C691.069 448.611 691.354 448.537 691.557 448.389C691.764 448.24 691.934 447.969 692.067 447.574L692.307 446.93L690.045 440.66H691.229L692.811 445.412Z" fill="#56657F"/>
<g opacity="0.5">
<path d="M669.086 116.803C669.086 116.443 668.959 116.141 668.705 115.895C668.455 115.648 668.031 115.426 667.434 115.227C666.602 114.973 665.994 114.643 665.611 114.236C665.232 113.826 665.043 113.307 665.043 112.678C665.043 112.037 665.229 111.512 665.6 111.102C665.975 110.691 666.488 110.447 667.141 110.369V109.086H668.014V110.375C668.67 110.465 669.18 110.74 669.543 111.201C669.91 111.662 670.094 112.293 670.094 113.094H669.016C669.016 112.543 668.885 112.105 668.623 111.781C668.361 111.457 668.008 111.295 667.562 111.295C667.098 111.295 666.742 111.416 666.496 111.658C666.25 111.896 666.127 112.23 666.127 112.66C666.127 113.059 666.256 113.377 666.514 113.615C666.775 113.85 667.203 114.064 667.797 114.26C668.395 114.451 668.859 114.664 669.191 114.898C669.527 115.129 669.773 115.398 669.93 115.707C670.09 116.016 670.17 116.377 670.17 116.791C670.17 117.451 669.971 117.982 669.572 118.385C669.178 118.787 668.623 119.025 667.908 119.1V120.219H667.041V119.1C666.314 119.033 665.744 118.775 665.33 118.326C664.92 117.873 664.715 117.26 664.715 116.486H665.799C665.799 117.029 665.941 117.447 666.227 117.74C666.512 118.033 666.916 118.18 667.439 118.18C667.951 118.18 668.354 118.057 668.646 117.811C668.939 117.564 669.086 117.229 669.086 116.803ZM679.548 110.463V111.383H679.349C678.505 111.398 677.833 111.648 677.333 112.133C676.833 112.617 676.544 113.299 676.466 114.178C676.915 113.662 677.529 113.404 678.306 113.404C679.048 113.404 679.64 113.666 680.081 114.189C680.527 114.713 680.749 115.389 680.749 116.217C680.749 117.096 680.509 117.799 680.029 118.326C679.552 118.854 678.911 119.117 678.107 119.117C677.29 119.117 676.628 118.805 676.12 118.18C675.612 117.551 675.359 116.742 675.359 115.754V115.338C675.359 113.768 675.693 112.568 676.361 111.74C677.032 110.908 678.03 110.482 679.355 110.463H679.548ZM678.124 114.307C677.753 114.307 677.411 114.418 677.099 114.641C676.786 114.863 676.57 115.143 676.448 115.479V115.877C676.448 116.58 676.607 117.146 676.923 117.576C677.239 118.006 677.634 118.221 678.107 118.221C678.595 118.221 678.978 118.041 679.255 117.682C679.536 117.322 679.677 116.852 679.677 116.27C679.677 115.684 679.534 115.211 679.249 114.852C678.968 114.488 678.593 114.307 678.124 114.307ZM687.782 115.361C687.782 116.631 687.565 117.574 687.132 118.191C686.698 118.809 686.02 119.117 685.098 119.117C684.188 119.117 683.514 118.816 683.077 118.215C682.639 117.609 682.413 116.707 682.397 115.508V114.061C682.397 112.807 682.614 111.875 683.048 111.266C683.481 110.656 684.161 110.352 685.087 110.352C686.005 110.352 686.68 110.646 687.114 111.236C687.548 111.822 687.77 112.729 687.782 113.955V115.361ZM686.698 113.879C686.698 112.961 686.569 112.293 686.311 111.875C686.054 111.453 685.645 111.242 685.087 111.242C684.532 111.242 684.128 111.451 683.874 111.869C683.62 112.287 683.489 112.93 683.481 113.797V115.531C683.481 116.453 683.614 117.135 683.88 117.576C684.149 118.014 684.555 118.232 685.098 118.232C685.634 118.232 686.03 118.025 686.288 117.611C686.55 117.197 686.686 116.545 686.698 115.654V113.879ZM694.92 115.361C694.92 116.631 694.704 117.574 694.27 118.191C693.836 118.809 693.159 119.117 692.237 119.117C691.327 119.117 690.653 118.816 690.215 118.215C689.778 117.609 689.551 116.707 689.536 115.508V114.061C689.536 112.807 689.752 111.875 690.186 111.266C690.62 110.656 691.299 110.352 692.225 110.352C693.143 110.352 693.819 110.646 694.252 111.236C694.686 111.822 694.909 112.729 694.92 113.955V115.361ZM693.836 113.879C693.836 112.961 693.707 112.293 693.45 111.875C693.192 111.453 692.784 111.242 692.225 111.242C691.67 111.242 691.266 111.451 691.012 111.869C690.758 112.287 690.627 112.93 690.62 113.797V115.531C690.62 116.453 690.752 117.135 691.018 117.576C691.288 118.014 691.694 118.232 692.237 118.232C692.772 118.232 693.168 118.025 693.426 117.611C693.688 117.197 693.825 116.545 693.836 115.654V113.879Z" fill="#56657F"/>
<path d="M669.086 165.803C669.086 165.443 668.959 165.141 668.705 164.895C668.455 164.648 668.031 164.426 667.434 164.227C666.602 163.973 665.994 163.643 665.611 163.236C665.232 162.826 665.043 162.307 665.043 161.678C665.043 161.037 665.229 160.512 665.6 160.102C665.975 159.691 666.488 159.447 667.141 159.369V158.086H668.014V159.375C668.67 159.465 669.18 159.74 669.543 160.201C669.91 160.662 670.094 161.293 670.094 162.094H669.016C669.016 161.543 668.885 161.105 668.623 160.781C668.361 160.457 668.008 160.295 667.562 160.295C667.098 160.295 666.742 160.416 666.496 160.658C666.25 160.896 666.127 161.23 666.127 161.66C666.127 162.059 666.256 162.377 666.514 162.615C666.775 162.85 667.203 163.064 667.797 163.26C668.395 163.451 668.859 163.664 669.191 163.898C669.527 164.129 669.773 164.398 669.93 164.707C670.09 165.016 670.17 165.377 670.17 165.791C670.17 166.451 669.971 166.982 669.572 167.385C669.178 167.787 668.623 168.025 667.908 168.1V169.219H667.041V168.1C666.314 168.033 665.744 167.775 665.33 167.326C664.92 166.873 664.715 166.26 664.715 165.486H665.799C665.799 166.029 665.941 166.447 666.227 166.74C666.512 167.033 666.916 167.18 667.439 167.18C667.951 167.18 668.354 167.057 668.646 166.811C668.939 166.564 669.086 166.229 669.086 165.803ZM675.792 163.723L676.226 159.469H680.597V160.471H677.146L676.888 162.797C677.306 162.551 677.78 162.428 678.312 162.428C679.089 162.428 679.706 162.686 680.163 163.201C680.62 163.713 680.849 164.406 680.849 165.281C680.849 166.16 680.611 166.854 680.134 167.361C679.661 167.865 678.999 168.117 678.148 168.117C677.394 168.117 676.779 167.908 676.302 167.49C675.825 167.072 675.554 166.494 675.487 165.756H676.513C676.579 166.244 676.753 166.613 677.034 166.863C677.316 167.109 677.687 167.232 678.148 167.232C678.652 167.232 679.046 167.061 679.331 166.717C679.62 166.373 679.765 165.898 679.765 165.293C679.765 164.723 679.609 164.266 679.296 163.922C678.987 163.574 678.575 163.4 678.06 163.4C677.587 163.4 677.216 163.504 676.946 163.711L676.659 163.945L675.792 163.723ZM687.782 164.361C687.782 165.631 687.565 166.574 687.132 167.191C686.698 167.809 686.02 168.117 685.098 168.117C684.188 168.117 683.514 167.816 683.077 167.215C682.639 166.609 682.413 165.707 682.397 164.508V163.061C682.397 161.807 682.614 160.875 683.048 160.266C683.481 159.656 684.161 159.352 685.087 159.352C686.005 159.352 686.68 159.646 687.114 160.236C687.548 160.822 687.77 161.729 687.782 162.955V164.361ZM686.698 162.879C686.698 161.961 686.569 161.293 686.311 160.875C686.054 160.453 685.645 160.242 685.087 160.242C684.532 160.242 684.128 160.451 683.874 160.869C683.62 161.287 683.489 161.93 683.481 162.797V164.531C683.481 165.453 683.614 166.135 683.88 166.576C684.149 167.014 684.555 167.232 685.098 167.232C685.634 167.232 686.03 167.025 686.288 166.611C686.55 166.197 686.686 165.545 686.698 164.654V162.879ZM694.92 164.361C694.92 165.631 694.704 166.574 694.27 167.191C693.836 167.809 693.159 168.117 692.237 168.117C691.327 168.117 690.653 167.816 690.215 167.215C689.778 166.609 689.551 165.707 689.536 164.508V163.061C689.536 161.807 689.752 160.875 690.186 160.266C690.62 159.656 691.299 159.352 692.225 159.352C693.143 159.352 693.819 159.646 694.252 160.236C694.686 160.822 694.909 161.729 694.92 162.955V164.361ZM693.836 162.879C693.836 161.961 693.707 161.293 693.45 160.875C693.192 160.453 692.784 160.242 692.225 160.242C691.67 160.242 691.266 160.451 691.012 160.869C690.758 161.287 690.627 161.93 690.62 162.797V164.531C690.62 165.453 690.752 166.135 691.018 166.576C691.288 167.014 691.694 167.232 692.237 167.232C692.772 167.232 693.168 167.025 693.426 166.611C693.688 166.197 693.825 165.545 693.836 164.654V162.879Z" fill="#56657F"/>
<path d="M669.086 214.803C669.086 214.443 668.959 214.141 668.705 213.895C668.455 213.648 668.031 213.426 667.434 213.227C666.602 212.973 665.994 212.643 665.611 212.236C665.232 211.826 665.043 211.307 665.043 210.678C665.043 210.037 665.229 209.512 665.6 209.102C665.975 208.691 666.488 208.447 667.141 208.369V207.086H668.014V208.375C668.67 208.465 669.18 208.74 669.543 209.201C669.91 209.662 670.094 210.293 670.094 211.094H669.016C669.016 210.543 668.885 210.105 668.623 209.781C668.361 209.457 668.008 209.295 667.562 209.295C667.098 209.295 666.742 209.416 666.496 209.658C666.25 209.896 666.127 210.23 666.127 210.66C666.127 211.059 666.256 211.377 666.514 211.615C666.775 211.85 667.203 212.064 667.797 212.26C668.395 212.451 668.859 212.664 669.191 212.898C669.527 213.129 669.773 213.398 669.93 213.707C670.09 214.016 670.17 214.377 670.17 214.791C670.17 215.451 669.971 215.982 669.572 216.385C669.178 216.787 668.623 217.025 667.908 217.1V218.219H667.041V217.1C666.314 217.033 665.744 216.775 665.33 216.326C664.92 215.873 664.715 215.26 664.715 214.486H665.799C665.799 215.029 665.941 215.447 666.227 215.74C666.512 216.033 666.916 216.18 667.439 216.18C667.951 216.18 668.354 216.057 668.646 215.811C668.939 215.564 669.086 215.229 669.086 214.803ZM679.87 214.135H681.054V215.02H679.87V217H678.78V215.02H674.896V214.381L678.716 208.469H679.87V214.135ZM676.126 214.135H678.78V209.951L678.652 210.186L676.126 214.135ZM687.782 213.361C687.782 214.631 687.565 215.574 687.132 216.191C686.698 216.809 686.02 217.117 685.098 217.117C684.188 217.117 683.514 216.816 683.077 216.215C682.639 215.609 682.413 214.707 682.397 213.508V212.061C682.397 210.807 682.614 209.875 683.048 209.266C683.481 208.656 684.161 208.352 685.087 208.352C686.005 208.352 686.68 208.646 687.114 209.236C687.548 209.822 687.77 210.729 687.782 211.955V213.361ZM686.698 211.879C686.698 210.961 686.569 210.293 686.311 209.875C686.054 209.453 685.645 209.242 685.087 209.242C684.532 209.242 684.128 209.451 683.874 209.869C683.62 210.287 683.489 210.93 683.481 211.797V213.531C683.481 214.453 683.614 215.135 683.88 215.576C684.149 216.014 684.555 216.232 685.098 216.232C685.634 216.232 686.03 216.025 686.288 215.611C686.55 215.197 686.686 214.545 686.698 213.654V211.879ZM694.92 213.361C694.92 214.631 694.704 215.574 694.27 216.191C693.836 216.809 693.159 217.117 692.237 217.117C691.327 217.117 690.653 216.816 690.215 216.215C689.778 215.609 689.551 214.707 689.536 213.508V212.061C689.536 210.807 689.752 209.875 690.186 209.266C690.62 208.656 691.299 208.352 692.225 208.352C693.143 208.352 693.819 208.646 694.252 209.236C694.686 209.822 694.909 210.729 694.92 211.955V213.361ZM693.836 211.879C693.836 210.961 693.707 210.293 693.45 209.875C693.192 209.453 692.784 209.242 692.225 209.242C691.67 209.242 691.266 209.451 691.012 209.869C690.758 210.287 690.627 210.93 690.62 211.797V213.531C690.62 214.453 690.752 215.135 691.018 215.576C691.288 216.014 691.694 216.232 692.237 216.232C692.772 216.232 693.168 216.025 693.426 215.611C693.688 215.197 693.825 214.545 693.836 213.654V211.879Z" fill="#56657F"/>
<path d="M669.086 263.803C669.086 263.443 668.959 263.141 668.705 262.895C668.455 262.648 668.031 262.426 667.434 262.227C666.602 261.973 665.994 261.643 665.611 261.236C665.232 260.826 665.043 260.307 665.043 259.678C665.043 259.037 665.229 258.512 665.6 258.102C665.975 257.691 666.488 257.447 667.141 257.369V256.086H668.014V257.375C668.67 257.465 669.18 257.74 669.543 258.201C669.91 258.662 670.094 259.293 670.094 260.094H669.016C669.016 259.543 668.885 259.105 668.623 258.781C668.361 258.457 668.008 258.295 667.562 258.295C667.098 258.295 666.742 258.416 666.496 258.658C666.25 258.896 666.127 259.23 666.127 259.66C666.127 260.059 666.256 260.377 666.514 260.615C666.775 260.85 667.203 261.064 667.797 261.26C668.395 261.451 668.859 261.664 669.191 261.898C669.527 262.129 669.773 262.398 669.93 262.707C670.09 263.016 670.17 263.377 670.17 263.791C670.17 264.451 669.971 264.982 669.572 265.385C669.178 265.787 668.623 266.025 667.908 266.1V267.219H667.041V266.1C666.314 266.033 665.744 265.775 665.33 265.326C664.92 264.873 664.715 264.26 664.715 263.486H665.799C665.799 264.029 665.941 264.447 666.227 264.74C666.512 265.033 666.916 265.18 667.439 265.18C667.951 265.18 668.354 265.057 668.646 264.811C668.939 264.564 669.086 264.229 669.086 263.803ZM676.87 261.207H677.685C678.196 261.199 678.599 261.064 678.892 260.803C679.185 260.541 679.331 260.188 679.331 259.742C679.331 258.742 678.833 258.242 677.837 258.242C677.368 258.242 676.993 258.377 676.712 258.646C676.435 258.912 676.296 259.266 676.296 259.707H675.212C675.212 259.031 675.458 258.471 675.95 258.025C676.446 257.576 677.075 257.352 677.837 257.352C678.642 257.352 679.273 257.564 679.73 257.99C680.187 258.416 680.415 259.008 680.415 259.766C680.415 260.137 680.294 260.496 680.052 260.844C679.814 261.191 679.487 261.451 679.073 261.623C679.542 261.771 679.904 262.018 680.157 262.361C680.415 262.705 680.544 263.125 680.544 263.621C680.544 264.387 680.294 264.994 679.794 265.443C679.294 265.893 678.644 266.117 677.843 266.117C677.042 266.117 676.39 265.9 675.886 265.467C675.386 265.033 675.136 264.461 675.136 263.75H676.226C676.226 264.199 676.372 264.559 676.665 264.828C676.958 265.098 677.351 265.232 677.843 265.232C678.366 265.232 678.767 265.096 679.044 264.822C679.321 264.549 679.46 264.156 679.46 263.645C679.46 263.148 679.308 262.768 679.003 262.502C678.698 262.236 678.259 262.1 677.685 262.092H676.87V261.207ZM687.782 262.361C687.782 263.631 687.565 264.574 687.132 265.191C686.698 265.809 686.02 266.117 685.098 266.117C684.188 266.117 683.514 265.816 683.077 265.215C682.639 264.609 682.413 263.707 682.397 262.508V261.061C682.397 259.807 682.614 258.875 683.048 258.266C683.481 257.656 684.161 257.352 685.087 257.352C686.005 257.352 686.68 257.646 687.114 258.236C687.548 258.822 687.77 259.729 687.782 260.955V262.361ZM686.698 260.879C686.698 259.961 686.569 259.293 686.311 258.875C686.054 258.453 685.645 258.242 685.087 258.242C684.532 258.242 684.128 258.451 683.874 258.869C683.62 259.287 683.489 259.93 683.481 260.797V262.531C683.481 263.453 683.614 264.135 683.88 264.576C684.149 265.014 684.555 265.232 685.098 265.232C685.634 265.232 686.03 265.025 686.288 264.611C686.55 264.197 686.686 263.545 686.698 262.654V260.879ZM694.92 262.361C694.92 263.631 694.704 264.574 694.27 265.191C693.836 265.809 693.159 266.117 692.237 266.117C691.327 266.117 690.653 265.816 690.215 265.215C689.778 264.609 689.551 263.707 689.536 262.508V261.061C689.536 259.807 689.752 258.875 690.186 258.266C690.62 257.656 691.299 257.352 692.225 257.352C693.143 257.352 693.819 257.646 694.252 258.236C694.686 258.822 694.909 259.729 694.92 260.955V262.361ZM693.836 260.879C693.836 259.961 693.707 259.293 693.45 258.875C693.192 258.453 692.784 258.242 692.225 258.242C691.67 258.242 691.266 258.451 691.012 258.869C690.758 259.287 690.627 259.93 690.62 260.797V262.531C690.62 263.453 690.752 264.135 691.018 264.576C691.288 265.014 691.694 265.232 692.237 265.232C692.772 265.232 693.168 265.025 693.426 264.611C693.688 264.197 693.825 263.545 693.836 262.654V260.879Z" fill="#56657F"/>
<path d="M669.086 312.803C669.086 312.443 668.959 312.141 668.705 311.895C668.455 311.648 668.031 311.426 667.434 311.227C666.602 310.973 665.994 310.643 665.611 310.236C665.232 309.826 665.043 309.307 665.043 308.678C665.043 308.037 665.229 307.512 665.6 307.102C665.975 306.691 666.488 306.447 667.141 306.369V305.086H668.014V306.375C668.67 306.465 669.18 306.74 669.543 307.201C669.91 307.662 670.094 308.293 670.094 309.094H669.016C669.016 308.543 668.885 308.105 668.623 307.781C668.361 307.457 668.008 307.295 667.562 307.295C667.098 307.295 666.742 307.416 666.496 307.658C666.25 307.896 666.127 308.23 666.127 308.66C666.127 309.059 666.256 309.377 666.514 309.615C666.775 309.85 667.203 310.064 667.797 310.26C668.395 310.451 668.859 310.664 669.191 310.898C669.527 311.129 669.773 311.398 669.93 311.707C670.09 312.016 670.17 312.377 670.17 312.791C670.17 313.451 669.971 313.982 669.572 314.385C669.178 314.787 668.623 315.025 667.908 315.1V316.219H667.041V315.1C666.314 315.033 665.744 314.775 665.33 314.326C664.92 313.873 664.715 313.26 664.715 312.486H665.799C665.799 313.029 665.941 313.447 666.227 313.74C666.512 314.033 666.916 314.18 667.439 314.18C667.951 314.18 668.354 314.057 668.646 313.811C668.939 313.564 669.086 313.229 669.086 312.803ZM680.884 315H675.294V314.221L678.247 310.939C678.685 310.443 678.986 310.041 679.15 309.732C679.318 309.42 679.402 309.098 679.402 308.766C679.402 308.32 679.267 307.955 678.997 307.67C678.728 307.385 678.368 307.242 677.919 307.242C677.38 307.242 676.96 307.396 676.659 307.705C676.362 308.01 676.214 308.436 676.214 308.982H675.13C675.13 308.197 675.382 307.562 675.886 307.078C676.394 306.594 677.071 306.352 677.919 306.352C678.712 306.352 679.339 306.561 679.8 306.979C680.261 307.393 680.491 307.945 680.491 308.637C680.491 309.477 679.956 310.477 678.886 311.637L676.601 314.115H680.884V315ZM687.782 311.361C687.782 312.631 687.565 313.574 687.132 314.191C686.698 314.809 686.02 315.117 685.098 315.117C684.188 315.117 683.514 314.816 683.077 314.215C682.639 313.609 682.413 312.707 682.397 311.508V310.061C682.397 308.807 682.614 307.875 683.048 307.266C683.481 306.656 684.161 306.352 685.087 306.352C686.005 306.352 686.68 306.646 687.114 307.236C687.548 307.822 687.77 308.729 687.782 309.955V311.361ZM686.698 309.879C686.698 308.961 686.569 308.293 686.311 307.875C686.054 307.453 685.645 307.242 685.087 307.242C684.532 307.242 684.128 307.451 683.874 307.869C683.62 308.287 683.489 308.93 683.481 309.797V311.531C683.481 312.453 683.614 313.135 683.88 313.576C684.149 314.014 684.555 314.232 685.098 314.232C685.634 314.232 686.03 314.025 686.288 313.611C686.55 313.197 686.686 312.545 686.698 311.654V309.879ZM694.92 311.361C694.92 312.631 694.704 313.574 694.27 314.191C693.836 314.809 693.159 315.117 692.237 315.117C691.327 315.117 690.653 314.816 690.215 314.215C689.778 313.609 689.551 312.707 689.536 311.508V310.061C689.536 308.807 689.752 307.875 690.186 307.266C690.62 306.656 691.299 306.352 692.225 306.352C693.143 306.352 693.819 306.646 694.252 307.236C694.686 307.822 694.909 308.729 694.92 309.955V311.361ZM693.836 309.879C693.836 308.961 693.707 308.293 693.45 307.875C693.192 307.453 692.784 307.242 692.225 307.242C691.67 307.242 691.266 307.451 691.012 307.869C690.758 308.287 690.627 308.93 690.62 309.797V311.531C690.62 312.453 690.752 313.135 691.018 313.576C691.288 314.014 691.694 314.232 692.237 314.232C692.772 314.232 693.168 314.025 693.426 313.611C693.688 313.197 693.825 312.545 693.836 311.654V309.879Z" fill="#56657F"/>
<path d="M669.086 361.803C669.086 361.443 668.959 361.141 668.705 360.895C668.455 360.648 668.031 360.426 667.434 360.227C666.602 359.973 665.994 359.643 665.611 359.236C665.232 358.826 665.043 358.307 665.043 357.678C665.043 357.037 665.229 356.512 665.6 356.102C665.975 355.691 666.488 355.447 667.141 355.369V354.086H668.014V355.375C668.67 355.465 669.18 355.74 669.543 356.201C669.91 356.662 670.094 357.293 670.094 358.094H669.016C669.016 357.543 668.885 357.105 668.623 356.781C668.361 356.457 668.008 356.295 667.562 356.295C667.098 356.295 666.742 356.416 666.496 356.658C666.25 356.896 666.127 357.23 666.127 357.66C666.127 358.059 666.256 358.377 666.514 358.615C666.775 358.85 667.203 359.064 667.797 359.26C668.395 359.451 668.859 359.664 669.191 359.898C669.527 360.129 669.773 360.398 669.93 360.707C670.09 361.016 670.17 361.377 670.17 361.791C670.17 362.451 669.971 362.982 669.572 363.385C669.178 363.787 668.623 364.025 667.908 364.1V365.219H667.041V364.1C666.314 364.033 665.744 363.775 665.33 363.326C664.92 362.873 664.715 362.26 664.715 361.486H665.799C665.799 362.029 665.941 362.447 666.227 362.74C666.512 363.033 666.916 363.18 667.439 363.18C667.951 363.18 668.354 363.057 668.646 362.811C668.939 362.564 669.086 362.229 669.086 361.803ZM678.857 364H677.767V356.775L675.581 357.578V356.594L678.687 355.428H678.857V364ZM687.782 360.361C687.782 361.631 687.565 362.574 687.132 363.191C686.698 363.809 686.02 364.117 685.098 364.117C684.188 364.117 683.514 363.816 683.077 363.215C682.639 362.609 682.413 361.707 682.397 360.508V359.061C682.397 357.807 682.614 356.875 683.048 356.266C683.481 355.656 684.161 355.352 685.087 355.352C686.005 355.352 686.68 355.646 687.114 356.236C687.548 356.822 687.77 357.729 687.782 358.955V360.361ZM686.698 358.879C686.698 357.961 686.569 357.293 686.311 356.875C686.054 356.453 685.645 356.242 685.087 356.242C684.532 356.242 684.128 356.451 683.874 356.869C683.62 357.287 683.489 357.93 683.481 358.797V360.531C683.481 361.453 683.614 362.135 683.88 362.576C684.149 363.014 684.555 363.232 685.098 363.232C685.634 363.232 686.03 363.025 686.288 362.611C686.55 362.197 686.686 361.545 686.698 360.654V358.879ZM694.92 360.361C694.92 361.631 694.704 362.574 694.27 363.191C693.836 363.809 693.159 364.117 692.237 364.117C691.327 364.117 690.653 363.816 690.215 363.215C689.778 362.609 689.551 361.707 689.536 360.508V359.061C689.536 357.807 689.752 356.875 690.186 356.266C690.62 355.656 691.299 355.352 692.225 355.352C693.143 355.352 693.819 355.646 694.252 356.236C694.686 356.822 694.909 357.729 694.92 358.955V360.361ZM693.836 358.879C693.836 357.961 693.707 357.293 693.45 356.875C693.192 356.453 692.784 356.242 692.225 356.242C691.67 356.242 691.266 356.451 691.012 356.869C690.758 357.287 690.627 357.93 690.62 358.797V360.531C690.62 361.453 690.752 362.135 691.018 362.576C691.288 363.014 691.694 363.232 692.237 363.232C692.772 363.232 693.168 363.025 693.426 362.611C693.688 362.197 693.825 361.545 693.836 360.654V358.879Z" fill="#56657F"/>
<path d="M694.92 409.361C694.92 410.631 694.704 411.574 694.27 412.191C693.836 412.809 693.159 413.117 692.237 413.117C691.327 413.117 690.653 412.816 690.215 412.215C689.778 411.609 689.551 410.707 689.536 409.508V408.061C689.536 406.807 689.752 405.875 690.186 405.266C690.62 404.656 691.299 404.352 692.225 404.352C693.143 404.352 693.819 404.646 694.252 405.236C694.686 405.822 694.909 406.729 694.92 407.955V409.361ZM693.836 407.879C693.836 406.961 693.707 406.293 693.45 405.875C693.192 405.453 692.784 405.242 692.225 405.242C691.67 405.242 691.266 405.451 691.012 405.869C690.758 406.287 690.627 406.93 690.62 407.797V409.531C690.62 410.453 690.752 411.135 691.018 411.576C691.288 412.014 691.694 412.232 692.237 412.232C692.772 412.232 693.168 412.025 693.426 411.611C693.688 411.197 693.825 410.545 693.836 409.654V407.879Z" fill="#56657F"/>
</g>
<rect x="360" y="371" width="336" height="1" fill="#313C4E"/>
<rect x="360" y="322" width="336" height="1" fill="#313C4E"/>
<rect x="360" y="273" width="336" height="1" fill="#313C4E"/>
<rect x="360" y="224" width="336" height="1" fill="#313C4E"/>
<rect x="360" y="175" width="336" height="1" fill="#313C4E"/>
<rect x="360" y="126" width="336" height="1" fill="#313C4E"/>
<rect x="360" y="420" width="336" height="1" fill="#313C4E"/>
</g>
<path d="M26.501 329C39.006 309 78.2286 253 134.044 253C185.315 253 221.049 340.5 279.103 340.5C345.38 340.5 417.284 152 539.208 152C607.986 152 624.242 186 640.499 221.5" stroke="#2196F3" stroke-width="2" stroke-linecap="round"/>
<path d="M32.877 42.3379C32.877 41.7129 32.6556 41.2311 32.2129 40.8926C31.7767 40.554 30.9857 40.2122 29.8398 39.8672C28.694 39.5221 27.7826 39.138 27.1055 38.7148C25.8099 37.901 25.1621 36.8398 25.1621 35.5312C25.1621 34.3854 25.6276 33.4414 26.5586 32.6992C27.4961 31.957 28.7103 31.5859 30.2012 31.5859C31.1908 31.5859 32.0729 31.7682 32.8477 32.1328C33.6224 32.4974 34.2311 33.0182 34.6738 33.6953C35.1165 34.3659 35.3379 35.1113 35.3379 35.9316H32.877C32.877 35.1895 32.6426 34.61 32.1738 34.1934C31.7116 33.7702 31.0475 33.5586 30.1816 33.5586C29.3743 33.5586 28.7461 33.7311 28.2969 34.0762C27.8542 34.4212 27.6328 34.903 27.6328 35.5215C27.6328 36.0423 27.8737 36.4785 28.3555 36.8301C28.8372 37.1751 29.6315 37.5137 30.7383 37.8457C31.8451 38.1712 32.7337 38.5456 33.4043 38.9688C34.0749 39.3854 34.5664 39.8672 34.8789 40.4141C35.1914 40.9544 35.3477 41.5892 35.3477 42.3184C35.3477 43.5033 34.8919 44.4473 33.9805 45.1504C33.0755 45.847 31.8451 46.1953 30.2891 46.1953C29.2604 46.1953 28.3132 46.0065 27.4473 45.6289C26.5879 45.2448 25.9173 44.7174 25.4355 44.0469C24.9603 43.3763 24.7227 42.5951 24.7227 41.7031H27.1934C27.1934 42.5104 27.4603 43.1354 27.9941 43.5781C28.528 44.0208 29.293 44.2422 30.2891 44.2422C31.1484 44.2422 31.793 44.0697 32.2227 43.7246C32.6589 43.373 32.877 42.9108 32.877 42.3379ZM43.7496 46C43.6454 45.7982 43.5543 45.4694 43.4762 45.0137C42.721 45.8014 41.7965 46.1953 40.7027 46.1953C39.6415 46.1953 38.7757 45.8926 38.1051 45.2871C37.4345 44.6816 37.0992 43.9329 37.0992 43.041C37.0992 41.9147 37.5159 41.0521 38.3492 40.4531C39.1891 39.8477 40.387 39.5449 41.943 39.5449H43.398V38.8516C43.398 38.3047 43.2451 37.8685 42.9391 37.543C42.6331 37.2109 42.1676 37.0449 41.5426 37.0449C41.0022 37.0449 40.5595 37.1816 40.2145 37.4551C39.8694 37.722 39.6969 38.0638 39.6969 38.4805H37.3238C37.3238 37.901 37.5159 37.3607 37.9 36.8594C38.2841 36.3516 38.8049 35.9544 39.4625 35.668C40.1266 35.3815 40.8655 35.2383 41.6793 35.2383C42.9163 35.2383 43.9026 35.5508 44.6383 36.1758C45.374 36.7943 45.7516 37.6667 45.7711 38.793V43.5586C45.7711 44.5091 45.9046 45.2676 46.1715 45.834V46H43.7496ZM41.1422 44.291C41.6109 44.291 42.0504 44.1771 42.4605 43.9492C42.8772 43.7214 43.1897 43.4154 43.398 43.0312V41.0391H42.1187C41.2398 41.0391 40.579 41.1921 40.1363 41.498C39.6936 41.804 39.4723 42.237 39.4723 42.7969C39.4723 43.2526 39.622 43.6172 39.9215 43.8906C40.2275 44.1576 40.6344 44.291 41.1422 44.291ZM50.9309 46H48.5578V31H50.9309V46ZM58.327 46.1953C56.823 46.1953 55.6023 45.7233 54.6648 44.7793C53.7339 43.8288 53.2684 42.5658 53.2684 40.9902V40.6973C53.2684 39.6426 53.4702 38.7018 53.8738 37.875C54.284 37.0417 54.8569 36.3939 55.5926 35.9316C56.3283 35.4694 57.1486 35.2383 58.0535 35.2383C59.4923 35.2383 60.6023 35.6973 61.3836 36.6152C62.1714 37.5332 62.5652 38.832 62.5652 40.5117V41.4688H55.6609C55.7326 42.3411 56.0223 43.0312 56.5301 43.5391C57.0444 44.0469 57.6889 44.3008 58.4637 44.3008C59.5509 44.3008 60.4363 43.8613 61.1199 42.9824L62.3992 44.2031C61.976 44.8346 61.4096 45.3262 60.7 45.6777C59.9969 46.0228 59.2059 46.1953 58.327 46.1953ZM58.0438 37.1426C57.3927 37.1426 56.8654 37.3704 56.4617 37.8262C56.0646 38.2819 55.8107 38.9167 55.7 39.7305H60.2215V39.5547C60.1694 38.7604 59.9578 38.1615 59.5867 37.7578C59.2156 37.3477 58.7013 37.1426 58.0438 37.1426ZM70.4887 43.1289C70.4887 42.7057 70.3129 42.3835 69.9613 42.1621C69.6163 41.9408 69.0401 41.7454 68.2328 41.5762C67.4255 41.4069 66.7517 41.1921 66.2113 40.9316C65.0264 40.3587 64.434 39.5286 64.434 38.4414C64.434 37.5299 64.8181 36.7682 65.5863 36.1562C66.3546 35.5443 67.3311 35.2383 68.516 35.2383C69.779 35.2383 70.7979 35.5508 71.5727 36.1758C72.3539 36.8008 72.7445 37.6113 72.7445 38.6074H70.3715C70.3715 38.1517 70.2022 37.7741 69.8637 37.4746C69.5251 37.1686 69.0759 37.0156 68.516 37.0156C67.9952 37.0156 67.5687 37.1361 67.2367 37.377C66.9112 37.6178 66.7484 37.9401 66.7484 38.3438C66.7484 38.7083 66.9014 38.9915 67.2074 39.1934C67.5134 39.3952 68.1319 39.6003 69.0629 39.8086C69.9939 40.0104 70.723 40.2546 71.2504 40.541C71.7842 40.821 72.1781 41.1595 72.432 41.5566C72.6924 41.9538 72.8227 42.4355 72.8227 43.002C72.8227 43.9525 72.4288 44.724 71.641 45.3164C70.8533 45.9023 69.8214 46.1953 68.5453 46.1953C67.6794 46.1953 66.9079 46.0391 66.2309 45.7266C65.5538 45.4141 65.0264 44.9844 64.6488 44.4375C64.2712 43.8906 64.0824 43.3014 64.0824 42.6699H66.3871C66.4197 43.2298 66.6312 43.6628 67.0219 43.9688C67.4125 44.2682 67.9301 44.418 68.5746 44.418C69.1996 44.418 69.6749 44.3008 70.0004 44.0664C70.3259 43.8255 70.4887 43.513 70.4887 43.1289Z" fill="#AFBDD1"/>
<defs>
<clipPath id="clip0">
<rect width="336" height="373" fill="white" transform="translate(24 78)"/>
</clipPath>
<clipPath id="clip1">
<rect width="336" height="373" fill="white" transform="translate(360 78)"/>
</clipPath>
</defs>
</svg>
