<svg width="368" height="248" viewBox="0 0 368 248" fill="none" xmlns="http://www.w3.org/2000/svg">
<rect x="0.5" y="0.5" width="367" height="247" rx="3.5" fill="#212936" stroke="#313C4E"/>
<path d="M274.115 216.197C273.15 215.92 272.447 215.58 272.005 215.178C271.568 214.771 271.349 214.271 271.349 213.678C271.349 213.006 271.617 212.451 272.152 212.014C272.691 211.572 273.39 211.352 274.25 211.352C274.836 211.352 275.357 211.465 275.814 211.691C276.275 211.918 276.63 212.23 276.88 212.629C277.134 213.027 277.261 213.463 277.261 213.936H276.13C276.13 213.42 275.966 213.016 275.638 212.723C275.31 212.426 274.847 212.277 274.25 212.277C273.695 212.277 273.261 212.4 272.949 212.646C272.64 212.889 272.486 213.227 272.486 213.66C272.486 214.008 272.632 214.303 272.925 214.545C273.222 214.783 273.724 215.002 274.431 215.201C275.142 215.4 275.697 215.621 276.095 215.863C276.498 216.102 276.795 216.381 276.986 216.701C277.181 217.021 277.279 217.398 277.279 217.832C277.279 218.523 277.009 219.078 276.47 219.496C275.931 219.91 275.211 220.117 274.308 220.117C273.722 220.117 273.175 220.006 272.668 219.783C272.16 219.557 271.767 219.248 271.49 218.857C271.216 218.467 271.08 218.023 271.08 217.527H272.211C272.211 218.043 272.4 218.451 272.779 218.752C273.162 219.049 273.671 219.197 274.308 219.197C274.902 219.197 275.357 219.076 275.673 218.834C275.99 218.592 276.148 218.262 276.148 217.844C276.148 217.426 276.002 217.104 275.709 216.877C275.416 216.646 274.884 216.42 274.115 216.197ZM282.87 220C282.808 219.875 282.757 219.652 282.718 219.332C282.214 219.855 281.612 220.117 280.913 220.117C280.288 220.117 279.775 219.941 279.372 219.59C278.974 219.234 278.775 218.785 278.775 218.242C278.775 217.582 279.025 217.07 279.525 216.707C280.029 216.34 280.736 216.156 281.646 216.156H282.7V215.658C282.7 215.279 282.587 214.979 282.361 214.756C282.134 214.529 281.8 214.416 281.359 214.416C280.972 214.416 280.648 214.514 280.386 214.709C280.124 214.904 279.993 215.141 279.993 215.418H278.904C278.904 215.102 279.015 214.797 279.237 214.504C279.464 214.207 279.769 213.973 280.152 213.801C280.538 213.629 280.962 213.543 281.423 213.543C282.154 213.543 282.726 213.727 283.14 214.094C283.554 214.457 283.769 214.959 283.784 215.6V218.518C283.784 219.1 283.859 219.562 284.007 219.906V220H282.87ZM281.071 219.174C281.411 219.174 281.734 219.086 282.038 218.91C282.343 218.734 282.564 218.506 282.7 218.225V216.924H281.851C280.523 216.924 279.859 217.312 279.859 218.09C279.859 218.43 279.972 218.695 280.198 218.887C280.425 219.078 280.716 219.174 281.071 219.174ZM287.354 212.125V213.66H288.538V214.498H287.354V218.43C287.354 218.684 287.407 218.875 287.513 219.004C287.618 219.129 287.798 219.191 288.052 219.191C288.177 219.191 288.348 219.168 288.567 219.121V220C288.282 220.078 288.005 220.117 287.735 220.117C287.251 220.117 286.886 219.971 286.639 219.678C286.393 219.385 286.27 218.969 286.27 218.43V214.498H285.116V213.66H286.27V212.125H287.354Z" fill="#313C4E"/>
<path d="M84 102C84 99.7909 85.7909 98 88 98C90.2091 98 92 99.7909 92 102V194H84V102Z" fill="#1976D2"/>
<path d="M132 70C132 67.7909 133.791 66 136 66C138.209 66 140 67.7909 140 70V194H132V70Z" fill="#1976D2"/>
<path d="M180 90C180 87.7909 181.791 86 184 86C186.209 86 188 87.7909 188 90V194H180V90Z" fill="#1976D2"/>
<path d="M228 62C228 59.7909 229.791 58 232 58C234.209 58 236 59.7909 236 62V194H228V62Z" fill="#1976D2"/>
<path d="M324 148C324 145.791 325.791 144 328 144C330.209 144 332 145.791 332 148V194H324V148Z" fill="#1976D2"/>
<path d="M36 86C36 83.7909 37.7909 82 40 82C42.2091 82 44 83.7909 44 86V194H36V86Z" fill="#1976D2"/>
<path d="M166.736 26.6826H162.88L162.074 29H160.276L164.036 19.0469H165.587L169.354 29H167.549L166.736 26.6826ZM163.366 25.2881H166.25L164.808 21.1592L163.366 25.2881ZM173.467 27.8105C173.881 27.8105 174.225 27.6898 174.499 27.4482C174.772 27.2067 174.918 26.9082 174.936 26.5527H176.502C176.484 27.013 176.34 27.4437 176.071 27.8447C175.802 28.2412 175.438 28.5557 174.977 28.7881C174.517 29.0205 174.02 29.1367 173.487 29.1367C172.453 29.1367 171.632 28.8018 171.026 28.1318C170.42 27.4619 170.117 26.5368 170.117 25.3564V25.1855C170.117 24.0599 170.418 23.1598 171.019 22.4854C171.621 21.8063 172.441 21.4668 173.48 21.4668C174.36 21.4668 175.075 21.7243 175.627 22.2393C176.183 22.7497 176.474 23.4219 176.502 24.2559H174.936C174.918 23.832 174.772 23.4834 174.499 23.21C174.23 22.9365 173.886 22.7998 173.467 22.7998C172.929 22.7998 172.514 22.9958 172.222 23.3877C171.931 23.7751 171.783 24.3652 171.778 25.1582V25.4248C171.778 26.2269 171.922 26.8262 172.209 27.2227C172.5 27.6146 172.92 27.8105 173.467 27.8105ZM179.938 19.8057V21.6035H181.243V22.834H179.938V26.9629C179.938 27.2454 179.992 27.4505 180.102 27.5781C180.216 27.7012 180.416 27.7627 180.703 27.7627C180.895 27.7627 181.088 27.7399 181.284 27.6943V28.9795C180.906 29.0843 180.542 29.1367 180.191 29.1367C178.915 29.1367 178.277 28.4326 178.277 27.0244V22.834H177.06V21.6035H178.277V19.8057H179.938ZM184.385 29H182.724V21.6035H184.385V29ZM182.622 19.6826C182.622 19.4274 182.701 19.2155 182.861 19.0469C183.025 18.8783 183.257 18.7939 183.558 18.7939C183.859 18.7939 184.091 18.8783 184.255 19.0469C184.42 19.2155 184.502 19.4274 184.502 19.6826C184.502 19.9333 184.42 20.1429 184.255 20.3115C184.091 20.4756 183.859 20.5576 183.558 20.5576C183.257 20.5576 183.025 20.4756 182.861 20.3115C182.701 20.1429 182.622 19.9333 182.622 19.6826ZM188.908 26.8945L190.474 21.6035H192.189L189.626 29H188.184L185.6 21.6035H187.322L188.908 26.8945ZM195.099 29H193.438V21.6035H195.099V29ZM193.335 19.6826C193.335 19.4274 193.415 19.2155 193.575 19.0469C193.739 18.8783 193.971 18.7939 194.272 18.7939C194.573 18.7939 194.805 18.8783 194.969 19.0469C195.133 19.2155 195.215 19.4274 195.215 19.6826C195.215 19.9333 195.133 20.1429 194.969 20.3115C194.805 20.4756 194.573 20.5576 194.272 20.5576C193.971 20.5576 193.739 20.4756 193.575 20.3115C193.415 20.1429 193.335 19.9333 193.335 19.6826ZM199.096 19.8057V21.6035H200.401V22.834H199.096V26.9629C199.096 27.2454 199.15 27.4505 199.26 27.5781C199.374 27.7012 199.574 27.7627 199.861 27.7627C200.053 27.7627 200.246 27.7399 200.442 27.6943V28.9795C200.064 29.0843 199.699 29.1367 199.348 29.1367C198.072 29.1367 197.434 28.4326 197.434 27.0244V22.834H196.218V21.6035H197.434V19.8057H199.096ZM204.363 26.6211L205.867 21.6035H207.638L204.698 30.1211C204.247 31.3652 203.482 31.9873 202.402 31.9873C202.16 31.9873 201.893 31.9463 201.602 31.8643V30.5791L201.916 30.5996C202.335 30.5996 202.65 30.5221 202.86 30.3672C203.074 30.2168 203.242 29.9616 203.365 29.6016L203.605 28.9658L201.007 21.6035H202.798L204.363 26.6211Z" fill="#AFBDD1"/>
</svg>
